<?xml version="1.0" encoding="UTF-8"?>
<svg id="_레이어_2" data-name="레이어 2" xmlns="http://www.w3.org/2000/svg" viewBox="0 0 165.22 46.07">
  <g id="_레이어_1-2" data-name="레이어 1">
    <g>
      <path d="M53.8.2c6.54-.74,12.24.5,17.26,4.8,8.68,7.43,9.85,21.56,1.99,29.98l5.17,5.48-5.67,5.61-5.79-5.41c-16.44,6.77-32.48-3.99-30.86-22.12C36.71,9.65,44.93,1.2,53.8.2ZM67.27,28.74c2.54-6.35,2.36-13.91-3.34-18.43-7.43-5.88-17.74-.14-18.57,8.84-.93,10.05,5.07,17.31,15.52,15.06l-4.85-5.59,5.35-5.65,5.89,5.76Z"/>
      <path d="M93.46.73v26.95c0,.48,1.03,2.95,1.36,3.51,2.69,4.56,11.96,4.43,14.73.09.3-.48,1.27-2.89,1.27-3.3V.73h9.13v28.17c0,1.89-2.13,6.66-3.36,8.21-6.34,8.06-24.51,7.56-29.89-1.46-.67-1.12-2.38-5.32-2.38-6.45V1.18c0-.09-.39-.23-.3-.46h9.44Z"/>
      <path d="M.02,38.44c-.29-.49,3.27-7.44,3.79-7.56,4.03,2.74,9.08,4.14,13.98,3.64,5.74-.58,6.14-5.75.62-7.92C11.27,23.8,1.37,23.73.59,13.36-.32,1.15,13.49-1.61,22.88.82c1.14.3,5.84,1.97,6.5,2.64.21.21.46.35.39.71l-3.17,7.21c-3.16-2.62-14.7-5.63-16.65-.83-2.29,5.65,7.87,6.59,11.27,7.75,5,1.71,9.53,4.5,10.11,10.29C33.02,45.36,9.93,45.03.02,38.44Z"/>
      <path d="M127.56,42.14V.73c10.75.57,24.9-2.6,32.74,6.7,6.85,8.13,6.79,22.72-1.67,29.7-8.63,7.12-20.7,4.53-31.06,5.02ZM137,33.92h8.68c.7,0,3.86-1.08,4.62-1.47,6.34-3.28,7.28-13.97,3-19.24-1.51-1.85-5.21-4.26-7.62-4.26h-8.68v24.97Z"/>
    </g>
  </g>
</svg>