<?xml version="1.0" encoding="UTF-8"?>
<svg id="_레이어_2" data-name="레이어 2" xmlns="http://www.w3.org/2000/svg" viewBox="0 0 165.33 159.57" stroke-width="1">
  <defs>
    <style>
      .cls-1 {
        stroke: #000;
        stroke-miterlimit: 10;
      }
    </style>
  </defs>
  <g id="_레이어_1-2" data-name="레이어 1">
    <g>
      <path class="cls-1" d="M101.6,13.49c10.9,1.06,19.65,7.31,25.81,16.06,2.18,3.09,5.81,8.23,5.16,12.05-.54,3.17-5.93,7.72-8.6,9.37-4.94,3.05-10.77,4.66-16.6,4.56.3,3.62.93,7.02,3.06,10.04,2.71-1.5,5.27-3.22,8.1-4.52,6.28-2.86,8.72-1.63,15.17-1.55,5.25.06,13.45-.74,18.26,0,2.35.36,3.61,2.86,3.82,5.01.67,6.68.18,15.82.32,22.82.07,3.73.54,9.05-4.43,9.61l-37.12.88c-4.87-.58-4.19-4.7-4.16-8.48l-4.86-.62c2.76,4.34,4.62,9.38,4.26,14.61,13.69-6.52,31.61-1.49,37.14,13.25,25.76,3.97,22.44,39.37-1.98,42.47l-117.85.02c-15.25-2.09-25.01-17.62-18.77-32.19,2.92-6.8,9.59-12.68,17.1-13.5-12.76-12.69-14.62-30.88-8.53-47.35,1.92-5.21,5.75-11.04,5.18-16.74-.87-8.71-13.75-8.52-15.83-.46-3.44-.79-4.73-4.83-5.33-7.91-2.38-12.2,5.14-24.22,15.4-30.28,23.68-13.97,54.29,4.54,52.04,31.94l-1.67,7.77c3.97-3.99,7.74-8.64,9.83-13.92.9-2.28,3.2-9.31,3.1-11.48-.07-1.52-1.28-4.18-1.46-6.15-.38-4.1.3-8.28,1.86-12.07.81-1.95,2.29-5.6,4.91-4.14l3.54,4.52c.63-2.51,2.12-4.78,3.97-6.56,5.63,1.31,8.85,7.46,9.14,12.94ZM91.85,22.03c-.92-5.27-3.48-10.28-7.31-14-1.12,3.44-1.5,6.88-1.23,10.52.17,2.36,1.6,5.4,1.54,7.28-.32,9.83-8.32,21.79-15.07,28.49-9.79,9.73-18.18,16.51-22.47,30.51-4.48,14.63-2.14,32.39,12.87,39.52l-1.83,2.43,49.03.31c.18-3.96-3.91-6.2-7.15-7.32-5.49-1.9-11.76-1.84-17.52-1.82l3.35-2.58c7.51-6.25,9.27-16.15,3.59-24.31-6.67-9.59-19.18-9.26-28.87-4.78,5.15-6.45,14.31-9.35,22.23-6.7-1.04-3.3-1.79-6.59-1.21-10.05.88-.17.78,1.31,1.16,2.03,5.11,9.66,15.48,13.71,26.08,12.88,1.9-.15,4.13-.94,6.09-.94,2.52,0,10.22,2.12,10.75-2.02.62-4.76-9.77-4.78-12.75-5.4-8.1-1.66-14.87-6.52-17.95-14.32l5.79,3.19c-1.35-3.34-.13-6.98.01-10.44-2.43-1.47-4.6-3.76-5.19-6.61,1.67.59,3.15,1.47,4.87,1.98,9.02,2.65,18.84.29,25.88-5.79-3.03-2.03-5-6.09.61-5.63-5.23-12.37-18.15-22.02-31.97-21.01.28,2.03-1.18,4.48-3.34,4.56ZM42.51,116.12c-1.06-2.65-2.38-5.16-3.2-7.92-3.78-12.88-.78-26.37,6.42-37.43,5.25-8.06,13.6-13.78,16.48-23.41,6.23-20.78-12.02-38.83-32.61-36.26-14.92,1.86-26.05,14.55-23.94,29.8l2.57-3.36c6.67-7.27,17.08-4.17,20.53,4.47,3.78,9.47-3.07,17.46-6.06,25.84-4.42,12.4-4,27.48,4.72,37.92,3.73,4.47,9.44,8.73,15.07,10.35ZM124.03,63.2c-3,.67-1.44,8.33-1.39,10.7l3.93,2.16,22.99.48c.81.02,1.69-.22,2.04-1,.38-.84.39-9.08.23-10.44-.09-.74-.3-1.36-.92-1.82l-26.88-.09ZM122.9,87.5v4.42c0,.61,1,1.3,1.66,1.39,5.06.69,13.18-.12,18.54-.21.94-.02,1.89-.05,2.83-.07,2.47-.06,5.61,1.42,5.91-2.01.18-2.04.25-7.48-.09-9.38-.2-1.11-.76-1.85-1.92-2.03l-20.54.29c.44,1.87.21,3.36-.3,5.17,1.5-.27,3.01.34,4.41.33,1.78,0,3.77-.97,5.49.26l-.18,2.75-15.82-.91ZM143.07,121.22c-5.2-17.79-28.42-20.56-39.35-6.47,4.09,1.51,7.88,3.8,9.04,8.31s.01,7.3-4.92,7.69c-9.89.78-22.4-1.72-31.68,1.51-4.51,1.57-8.32,4.67-11.41,8.23-4.58-10.56-17.32-12.89-27.1-8.22,1.99-3.02,4.8-5.11,7.91-6.85-8.3-9.79-24.38-10.26-31.1,1.47s1.02,25.98,14.52,27l114.75-.04c10.52-1,17.99-10.76,15.2-21.21-1.96-7.34-8.71-10.8-15.84-11.41Z"/>
      <path class="cls-1" d="M111.93,33.6c-2.03-2.03-4.91-2.28-5.81.89-3.6-.21-4.04-5.34-.59-6.23,3.74-.97,7.6,1.25,6.4,5.34Z"/>
      <g>
        <g>
          <path class="cls-1" d="M125.94,71.06l-.26-2.55c.16-.53.59-.46,1.01-.51,3.81-.44,7.99.65,11.84.31.79.76.47,1.86.2,2.75h-12.79Z"/>
          <path class="cls-1" d="M145.05,67.45c3.74-.76,3.52,5.92.09,4.66-2.48-.91-2.41-4.18-.09-4.66Z"/>
        </g>
        <path class="cls-1" d="M145.05,84.51c3.56-.72,3.63,5.01.31,4.46-2.69-.45-2.65-3.99-.31-4.46Z"/>
      </g>
    </g>
  </g>
</svg>